<svg width="28" height="28" viewBox="0 0 28 28" fill="none" xmlns="http://www.w3.org/2000/svg">
<path d="M26.475 27.59L16.0383 17.1533C15.205 17.8633 14.2467 18.4128 13.1633 18.8017C12.08 19.1906 10.9911 19.385 9.89666 19.385C7.22778 19.385 4.96889 18.4611 3.12 16.6133C1.27111 14.7645 0.346664 12.5061 0.346664 9.83834C0.346664 7.17057 1.27 4.91112 3.11666 3.06001C4.96444 1.20779 7.22222 0.281677 9.89 0.281677C12.5589 0.281677 14.8189 1.20612 16.67 3.05501C18.5211 4.9039 19.4467 7.16334 19.4467 9.83334C19.4467 10.9911 19.2417 12.1117 18.8317 13.195C18.4206 14.2783 17.8817 15.205 17.215 15.975L27.6517 26.41L26.4733 27.59H26.475ZM9.89666 17.7167C12.1078 17.7167 13.975 16.9556 15.4983 15.4333C17.0206 13.9111 17.7817 12.0439 17.7817 9.83168C17.7817 7.62056 17.0206 5.7539 15.4983 4.23168C13.9761 2.70945 12.1094 1.94834 9.89833 1.94834C7.68722 1.94834 5.82 2.70945 4.29666 4.23168C2.77444 5.7539 2.01333 7.62056 2.01333 9.83168C2.01333 12.0428 2.77444 13.9095 4.29666 15.4317C5.81889 16.9539 7.68555 17.7167 9.89666 17.7167Z" fill="white"/>
</svg>
